<svg width="250" height="250" viewBox="0 0 250 250" fill="none" xmlns="http://www.w3.org/2000/svg">
<path fill-rule="evenodd" clip-rule="evenodd" d="M250 0H0V250H250V0ZM129.44 124.894C129.44 159.63 101.282 187.788 66.5461 187.788C46.5079 187.788 51.5492 178.417 59.4027 163.819C65.163 153.111 72.4362 139.591 72.4362 124.894C72.4362 110.197 65.163 96.677 59.4027 85.9695C51.5492 71.3709 46.5079 62 66.5461 62C101.282 62 129.44 90.1586 129.44 124.894ZM184.449 157.703L184.449 157.703C202.389 175.541 214.323 187.408 137.222 187.408C112.786 187.408 117.904 177.08 125.768 161.21C130.909 150.836 137.222 138.096 137.222 124.324C137.222 111.573 132.675 99.8071 128.89 90.0135C122.332 73.0476 118.063 62 143.683 62C212.023 62 201.015 73.2163 184.149 90.4014C174.614 100.117 163.206 111.741 163.206 124.324C163.206 136.581 174.712 148.022 184.449 157.703Z" fill="black"/>
</svg>
